<?xml version="1.0" encoding="UTF-8" standalone="no"?>
<!DOCTYPE svg PUBLIC "-//W3C//DTD SVG 1.1//EN" "http://www.w3.org/Graphics/SVG/1.1/DTD/svg11.dtd">
<svg version="1.1" xmlns="http://www.w3.org/2000/svg" xmlns:xlink="http://www.w3.org/1999/xlink" preserveAspectRatio="xMidYMid meet" viewBox="0 0 135 300" width="135" height="300"><defs><path d="M52.05 125.19L54.61 125.28L57.19 125.42L59.81 125.59L62.46 125.81L65.14 126.06L67.5 126.32L67.16 126.36L64.43 126.7L61.71 127.07L59.03 127.49L56.37 127.93L53.76 128.41L51.18 128.92L48.65 129.46L46.16 130.04L43.71 130.63L41.31 131.26L38.96 131.91L36.66 132.59L34.42 133.3L32.23 134.02L30.09 134.77L28.02 135.54L26.01 136.33L24.06 137.14L22.18 137.97L20.36 138.82L18.62 139.68L16.94 140.55L15.34 141.44L13.81 142.35L12.37 143.26L11 144.19L9.71 145.13L8.51 146.07L7.39 147.03L6.36 147.99L5.42 148.95L4.58 149.92L4.52 150L4.51 150L3.82 149.11L3.17 148.13L2.61 147.15L2.15 146.17L1.79 145.2L1.54 144.22L1.39 143.24L1.35 142.27L1.42 141.3L1.6 140.35L1.89 139.42L2.29 138.52L2.78 137.64L3.38 136.79L4.08 135.96L4.87 135.16L5.76 134.38L6.74 133.64L7.81 132.92L8.97 132.23L10.21 131.57L11.54 130.94L12.94 130.34L14.43 129.76L15.99 129.22L17.62 128.71L19.33 128.24L21.11 127.79L22.95 127.38L24.86 127L26.83 126.65L28.87 126.34L30.96 126.06L33.11 125.82L35.31 125.61L37.56 125.44L39.87 125.3L42.22 125.21L44.62 125.14L47.05 125.12L49.53 125.14L52.05 125.19ZM92.78 125.2L95.13 125.3L97.43 125.44L99.69 125.61L101.89 125.81L104.04 126.06L106.13 126.33L108.16 126.65L110.14 126.99L112.05 127.37L113.89 127.79L115.67 128.23L117.37 128.71L119.01 129.22L120.57 129.76L122.06 130.33L123.46 130.93L124.79 131.56L126.03 132.22L127.19 132.91L128.26 133.63L129.24 134.38L130.13 135.15L130.92 135.95L131.62 136.78L132.22 137.63L132.71 138.51L133.11 139.42L133.4 140.34L133.58 141.3L133.65 142.26L133.61 143.24L133.46 144.21L133.21 145.19L132.85 146.17L132.39 147.15L131.83 148.13L131.18 149.1L130.49 150L130.49 150L130.48 150L130.49 150L130.42 149.92L129.58 148.95L128.64 147.98L127.61 147.02L126.49 146.07L125.29 145.12L124 144.18L122.63 143.26L121.19 142.34L119.66 141.44L118.06 140.55L116.38 139.67L114.64 138.81L112.82 137.97L110.94 137.14L108.99 136.33L106.98 135.54L104.9 134.77L102.77 134.02L100.58 133.29L98.34 132.59L96.04 131.91L93.69 131.26L91.29 130.63L88.84 130.03L86.35 129.46L83.82 128.92L81.24 128.41L78.62 127.93L75.97 127.49L73.29 127.07L70.57 126.7L67.84 126.36L67.5 126.32L69.86 126.06L72.53 125.8L75.18 125.59L77.8 125.42L80.39 125.28L82.95 125.19L85.46 125.14L87.94 125.12L90.38 125.14L92.78 125.2Z" id="b1u2dxzWT"></path><path d="M93.39 1.77L95.43 2.69L97.4 3.84L99.32 5.22L101.17 6.82L102.96 8.65L104.68 10.68L106.34 12.92L107.94 15.36L109.47 18L110.93 20.84L112.32 23.85L113.64 27.06L114.89 30.44L116.07 33.99L117.17 37.7L118.2 41.58L119.16 45.62L120.04 49.81L120.84 54.14L121.57 58.62L122.22 63.23L122.78 67.98L123.27 72.85L123.67 77.84L123.99 82.95L124.23 88.17L124.38 93.5L124.45 98.92L124.43 104.45L124.32 110.06L124.12 115.76L123.84 121.54L123.46 127.4L122.99 133.32L122.43 139.31L121.77 145.37L121.11 150.7L121.63 156.05L122.13 162.12L122.53 168.12L122.85 174.06L123.07 179.92L123.21 185.71L123.26 191.41L123.22 197.02L123.1 202.55L122.89 207.97L122.6 213.29L122.22 218.5L121.77 223.6L121.24 228.58L120.62 233.44L119.93 238.16L119.17 242.76L118.32 247.22L117.41 251.53L116.42 255.69L115.36 259.7L114.22 263.55L113.02 267.24L111.75 270.76L110.41 274.11L109.01 277.27L107.54 280.25L106.01 283.05L104.41 285.65L102.75 288.05L101.04 290.24L99.26 292.23L97.42 294.01L95.53 295.56L93.58 296.89L91.57 297.99L89.52 298.86L87.41 299.48L85.24 299.87L83.05 300L80.85 299.88L78.65 299.52L76.44 298.92L74.24 298.08L72.03 297.01L69.83 295.72L67.64 294.2L65.64 292.61L65.82 292.47L68.05 290.58L70.26 288.48L72.47 286.18L74.66 283.68L76.83 280.98L78.99 278.1L81.13 275.03L83.24 271.78L85.33 268.35L87.4 264.75L89.43 260.99L91.43 257.06L93.4 252.97L95.33 248.73L97.22 244.34L99.07 239.81L100.87 235.14L102.63 230.33L104.34 225.39L106 220.33L107.6 215.15L109.15 209.84L110.64 204.43L112.07 198.91L113.44 193.29L114.74 187.56L115.97 181.75L117.13 175.84L118.22 169.85L119.23 163.78L120.17 157.63L121.02 151.48L121.11 150.7L121.04 149.92L120.35 143.74L119.57 137.57L118.72 131.48L117.79 125.46L116.78 119.53L115.7 113.68L114.55 107.93L113.33 102.27L112.05 96.71L110.7 91.26L109.29 85.92L107.82 80.7L106.3 75.59L104.72 70.61L103.08 65.76L101.4 61.04L99.67 56.46L97.9 52.03L96.08 47.74L94.22 43.6L92.32 39.62L90.38 35.81L88.42 32.16L86.42 28.67L84.39 25.37L82.33 22.24L80.25 19.3L78.14 16.55L76.02 14L73.87 11.64L71.72 9.48L69.54 7.54L69.36 7.39L71.4 5.85L73.64 4.39L75.87 3.16L78.1 2.15L80.33 1.37L82.55 0.82L84.76 0.52L86.96 0.46L89.15 0.65L91.3 1.09L91.3 1.09L93.39 1.77ZM58.56 1.08L60.76 1.92L62.97 2.99L65.17 4.28L67.36 5.8L69.36 7.39L69.18 7.53L66.95 9.42L64.74 11.52L62.53 13.82L60.34 16.32L58.17 19.02L56.01 21.9L53.87 24.97L51.76 28.22L49.67 31.65L47.6 35.25L45.57 39.01L43.57 42.94L41.6 47.03L39.67 51.27L37.78 55.66L35.93 60.19L34.13 64.86L32.37 69.67L30.66 74.61L29 79.67L27.4 84.85L25.85 90.16L24.36 95.57L22.93 101.09L21.56 106.71L20.26 112.44L19.03 118.25L17.87 124.16L16.78 130.15L15.77 136.22L14.83 142.37L13.98 148.52L13.89 149.3L13.96 150.08L14.65 156.26L15.43 162.43L16.28 168.52L17.21 174.54L18.22 180.47L19.3 186.32L20.45 192.07L21.67 197.73L22.95 203.29L24.3 208.74L25.71 214.08L27.18 219.3L28.7 224.41L30.28 229.39L31.92 234.24L33.6 238.96L35.33 243.54L37.1 247.97L38.92 252.26L40.78 256.4L42.68 260.38L44.62 264.19L46.58 267.84L48.58 271.33L50.61 274.63L52.67 277.76L54.75 280.7L56.86 283.45L58.98 286L61.13 288.36L63.28 290.52L65.46 292.46L65.64 292.61L63.6 294.15L61.36 295.61L59.13 296.84L56.9 297.85L54.67 298.63L52.45 299.18L50.24 299.48L48.04 299.54L45.85 299.35L43.7 298.91L41.61 298.23L39.57 297.31L37.6 296.16L35.68 294.78L33.83 293.18L32.04 291.35L30.32 289.32L28.66 287.08L27.06 284.64L25.53 282L24.07 279.16L22.68 276.15L21.36 272.94L20.11 269.56L18.93 266.01L17.83 262.3L16.8 258.42L15.84 254.38L14.96 250.19L14.16 245.86L13.43 241.38L12.78 236.77L12.22 232.02L11.73 227.15L11.33 222.16L11.01 217.05L10.77 211.83L10.62 206.5L10.55 201.08L10.57 195.55L10.68 189.94L10.88 184.24L11.16 178.46L11.54 172.6L12.01 166.68L12.57 160.69L13.23 154.63L13.89 149.3L13.37 143.95L12.87 137.88L12.47 131.88L12.15 125.94L11.93 120.08L11.79 114.29L11.74 108.59L11.78 102.98L11.9 97.45L12.11 92.03L12.4 86.71L12.78 81.5L13.23 76.4L13.76 71.42L14.38 66.56L15.07 61.84L15.83 57.24L16.68 52.78L17.59 48.47L18.58 44.31L19.64 40.3L20.78 36.45L21.98 32.76L23.25 29.24L24.59 25.89L25.99 22.73L27.46 19.75L28.99 16.95L30.59 14.35L32.25 11.95L33.96 9.76L35.74 7.77L37.58 5.99L39.47 4.44L41.42 3.11L43.43 2.01L45.48 1.14L47.59 0.52L49.76 0.13L51.95 0L54.15 0.12L56.35 0.48L56.35 0.48L58.56 1.08Z" id="a4TKPhDXY"></path><path d="M131.18 150.9L131.83 151.87L132.39 152.85L132.85 153.83L133.21 154.81L133.46 155.79L133.61 156.76L133.65 157.74L133.58 158.7L133.4 159.66L133.11 160.58L132.71 161.49L132.22 162.37L131.62 163.22L130.92 164.05L130.13 164.85L129.24 165.62L128.26 166.37L127.19 167.09L126.03 167.78L124.79 168.44L123.46 169.07L122.06 169.67L120.57 170.24L119.01 170.78L117.37 171.29L115.67 171.77L113.89 172.21L112.05 172.63L110.14 173.01L108.16 173.35L106.13 173.67L104.04 173.94L101.89 174.19L99.69 174.39L97.43 174.56L95.13 174.7L92.78 174.8L90.38 174.86L87.94 174.88L85.46 174.86L82.95 174.81L80.39 174.72L77.8 174.58L75.18 174.41L72.53 174.2L69.86 173.94L67.5 173.68L67.84 173.64L70.57 173.3L73.29 172.93L75.97 172.51L78.62 172.07L81.24 171.59L83.82 171.08L86.35 170.54L88.84 169.97L91.29 169.37L93.69 168.74L96.04 168.09L98.34 167.41L100.58 166.71L102.77 165.98L104.9 165.23L106.98 164.46L108.99 163.67L110.94 162.86L112.82 162.03L114.64 161.19L116.38 160.33L118.06 159.45L119.66 158.56L121.19 157.66L122.63 156.74L124 155.82L125.29 154.88L126.49 153.93L127.61 152.98L128.64 152.02L129.58 151.05L130.42 150.08L130.49 150L130.49 150L130.49 150L130.49 150L131.18 150.9ZM5.42 151.05L6.36 152.01L7.39 152.97L8.51 153.93L9.71 154.87L11 155.81L12.37 156.74L13.81 157.65L15.34 158.56L16.94 159.45L18.62 160.32L20.36 161.18L22.18 162.03L24.06 162.86L26.01 163.67L28.02 164.46L30.09 165.23L32.23 165.98L34.42 166.7L36.66 167.41L38.96 168.09L41.31 168.74L43.71 169.37L46.16 169.96L48.65 170.54L51.18 171.08L53.76 171.59L56.37 172.07L59.03 172.51L61.71 172.93L64.43 173.3L67.16 173.64L67.5 173.68L65.14 173.94L62.46 174.19L59.81 174.41L57.19 174.58L54.61 174.72L52.05 174.81L49.53 174.86L47.05 174.88L44.62 174.86L42.22 174.79L39.87 174.7L37.56 174.56L35.31 174.39L33.11 174.18L30.96 173.94L28.87 173.66L26.83 173.35L24.86 173L22.95 172.62L21.11 172.21L19.33 171.76L17.62 171.29L15.99 170.78L14.43 170.24L12.94 169.66L11.54 169.06L10.21 168.43L8.97 167.77L7.81 167.08L6.74 166.36L5.76 165.62L4.87 164.84L4.08 164.04L3.38 163.21L2.78 162.36L2.29 161.48L1.89 160.58L1.6 159.65L1.42 158.7L1.35 157.73L1.39 156.76L1.54 155.78L1.79 154.8L2.15 153.83L2.61 152.85L3.17 151.87L3.82 150.89L4.51 150L4.52 150L4.58 150.08L5.42 151.05Z" id="aiuaTsPBB"></path></defs><g><g><g><use xlink:href="#b1u2dxzWT" opacity="0.8" fill="#ffffff" fill-opacity="1"></use><g><use xlink:href="#b1u2dxzWT" opacity="0.8" fill-opacity="0" stroke="#1e201d" stroke-width="0.3" stroke-opacity="1"></use></g></g><g><use xlink:href="#a4TKPhDXY" opacity="0.8" fill="#ffffff" fill-opacity="1"></use><g><use xlink:href="#a4TKPhDXY" opacity="0.8" fill-opacity="0" stroke="#1e201d" stroke-width="0.3" stroke-opacity="1"></use></g></g><g><use xlink:href="#aiuaTsPBB" opacity="0.8" fill="#ffffff" fill-opacity="1"></use><g><use xlink:href="#aiuaTsPBB" opacity="0.8" fill-opacity="0" stroke="#1e201d" stroke-width="0.3" stroke-opacity="1"></use></g></g></g></g></svg>