<?xml version="1.0" encoding="UTF-8" standalone="no"?>
<!DOCTYPE svg PUBLIC "-//W3C//DTD SVG 1.1//EN" "http://www.w3.org/Graphics/SVG/1.1/DTD/svg11.dtd">
<svg version="1.1" xmlns="http://www.w3.org/2000/svg" xmlns:xlink="http://www.w3.org/1999/xlink" preserveAspectRatio="xMidYMid meet" viewBox="0 0 175 110" width="175" height="110"><defs><path d="M109.07 5.3L110.62 5.53L112.16 5.82L113.67 6.17L115.16 6.58L116.63 7.05L118.07 7.58L119.48 8.16L120.87 8.8L122.23 9.49L123.56 10.23L124.85 11.03L126.11 11.87L127.34 12.76L128.54 13.7L129.69 14.68L130.81 15.71L131.89 16.78L132.93 17.89L133.93 19.04L134.88 20.24L135.79 21.47L136.66 22.73L137.48 24.03L138.25 25.37L138.97 26.74L139.64 28.13L140.26 29.56L140.82 31.02L141.34 32.51L141.79 34.02L142.19 35.55L142.53 37.11L142.82 38.69L143.04 40.3L143.2 41.92L143.29 43.56L143.33 45.22L143.33 45.28L143.33 45.34L143.33 45.41L143.33 45.47L143.33 45.53L143.33 45.6L143.32 45.66L143.32 45.72L143.32 45.78L143.32 45.85L143.32 45.91L143.32 45.97L143.32 46.03L143.32 46.1L143.32 46.16L143.31 46.22L143.31 46.28L143.31 46.35L143.31 46.41L143.31 46.47L143.31 46.53L143.3 46.6L143.3 46.66L143.3 46.72L143.3 46.78L143.29 46.85L143.29 46.91L143.29 46.97L143.29 47.03L143.28 47.09L143.28 47.16L143.28 47.22L143.27 47.28L143.27 47.34L143.27 47.4L143.26 47.47L143.26 47.53L143.26 47.59L143.25 47.65L143.25 47.71L144.41 47.98L145.55 48.28L146.68 48.6L147.79 48.96L148.88 49.34L149.95 49.75L151.01 50.18L152.04 50.65L153.05 51.13L154.04 51.64L155.01 52.18L155.95 52.74L156.87 53.32L157.77 53.93L158.64 54.55L159.49 55.2L160.31 55.87L161.1 56.56L161.86 57.27L162.6 58L163.31 58.75L163.98 59.52L164.63 60.31L165.24 61.11L165.83 61.93L166.38 62.76L166.89 63.61L167.38 64.48L167.82 65.36L168.24 66.25L168.61 67.16L168.95 68.08L169.26 69.01L169.52 69.96L169.75 70.91L169.93 71.88L170.08 72.86L170.19 73.84L170.25 74.84L170.27 75.84L170.24 77.04L170.15 78.23L170 79.41L169.79 80.57L169.52 81.72L169.2 82.85L168.83 83.96L168.4 85.06L167.92 86.13L167.38 87.19L166.8 88.23L166.17 89.24L165.49 90.23L164.77 91.2L164 92.14L163.19 93.06L162.33 93.95L161.43 94.82L160.49 95.65L159.52 96.46L158.5 97.24L157.45 97.98L156.36 98.69L155.24 99.37L154.08 100.02L152.89 100.63L151.67 101.21L150.43 101.75L149.15 102.25L147.84 102.71L146.51 103.13L145.16 103.51L143.78 103.85L142.38 104.15L140.95 104.41L139.51 104.62L138.04 104.78L136.56 104.9L135.07 104.98L133.55 105L100.85 105L100.85 84.52L123.81 84.52L87.5 42.26L51.19 84.52L74.21 84.52L74.21 105L41.45 105L39.93 104.98L38.44 104.9L36.96 104.78L35.49 104.62L34.05 104.41L32.63 104.15L31.22 103.85L29.84 103.51L28.49 103.13L27.16 102.71L25.85 102.25L24.58 101.75L23.33 101.21L22.11 100.63L20.92 100.02L19.76 99.37L18.64 98.69L17.55 97.98L16.5 97.24L15.49 96.46L14.51 95.65L13.57 94.82L12.67 93.95L11.82 93.06L11 92.14L10.23 91.2L9.51 90.23L8.83 89.24L8.2 88.23L7.62 87.19L7.08 86.13L6.6 85.06L6.17 83.96L5.8 82.85L5.48 81.72L5.21 80.57L5 79.41L4.85 78.23L4.76 77.04L4.73 75.84L4.75 74.79L4.82 73.75L4.94 72.72L5.1 71.71L5.3 70.7L5.55 69.7L5.83 68.72L6.16 67.75L6.53 66.79L6.94 65.85L7.39 64.92L7.88 64.01L8.4 63.11L8.96 62.24L9.56 61.37L10.19 60.53L10.86 59.71L11.56 58.9L12.29 58.11L13.06 57.35L13.85 56.61L14.68 55.88L15.54 55.18L16.42 54.51L17.33 53.85L18.27 53.22L19.24 52.62L20.23 52.04L21.25 51.49L22.29 50.96L23.36 50.46L24.44 49.99L25.55 49.55L26.68 49.14L27.83 48.76L29 48.4L30.19 48.08L31.4 47.79L32.62 47.53L33.86 47.31L34 46.17L34.17 45.05L34.38 43.95L34.63 42.85L34.92 41.77L35.25 40.71L35.61 39.67L36.01 38.65L36.44 37.64L36.91 36.65L37.41 35.69L37.95 34.74L38.51 33.82L39.11 32.92L39.74 32.04L40.39 31.19L41.08 30.37L41.79 29.57L42.53 28.79L43.3 28.05L44.09 27.33L44.91 26.65L45.75 25.99L46.62 25.36L47.5 24.77L48.41 24.21L49.34 23.68L50.29 23.18L51.26 22.72L52.25 22.3L53.26 21.91L54.28 21.56L55.32 21.25L56.38 20.98L57.45 20.75L58.53 20.55L59.63 20.4L60.74 20.29L61.86 20.23L62.99 20.21L63.24 20.21L63.49 20.21L63.74 20.22L63.99 20.22L64.24 20.23L64.48 20.25L64.73 20.26L64.98 20.27L65.22 20.29L65.47 20.31L65.71 20.34L65.95 20.36L66.2 20.39L66.44 20.41L66.68 20.44L66.92 20.48L67.16 20.51L67.4 20.55L67.64 20.59L67.88 20.63L68.12 20.67L68.36 20.71L68.59 20.76L68.83 20.81L69.07 20.86L69.3 20.91L69.53 20.96L69.77 21.02L70 21.08L70.23 21.14L70.46 21.2L70.69 21.26L70.92 21.33L71.15 21.39L71.38 21.46L71.61 21.53L71.83 21.61L72.06 21.68L72.29 21.76L72.51 21.84L73.05 21.08L73.61 20.33L74.18 19.6L74.77 18.89L75.37 18.19L75.99 17.5L76.63 16.83L77.28 16.17L77.94 15.53L78.62 14.91L79.32 14.3L80.02 13.7L80.75 13.13L81.48 12.57L82.23 12.03L82.99 11.51L83.76 11L84.54 10.51L85.34 10.05L86.15 9.6L86.96 9.17L87.79 8.75L88.63 8.36L89.49 7.99L90.35 7.64L91.22 7.31L92.1 7L92.99 6.71L93.89 6.44L94.79 6.2L95.71 5.97L96.63 5.77L97.57 5.59L98.51 5.44L99.45 5.31L100.41 5.2L101.37 5.11L102.34 5.05L103.31 5.01L104.29 5L105.9 5.03L107.49 5.13L107.49 5.13L109.07 5.3Z" id="ajfvIaTVS"></path></defs><g><g><g><g><use xlink:href="#ajfvIaTVS" opacity="1" fill-opacity="0" stroke="#ffffff" stroke-width="8" stroke-opacity="1"></use></g></g></g></g></svg>